<svg width="127" height="36" viewBox="0 0 127 36" fill="none" xmlns="http://www.w3.org/2000/svg">
<path d="M0.9375 35V30.1953L4.47656 29.4453V6.45312L0.9375 5.70312V0.875H17.0156V5.70312L12.7031 6.45312V28.6953H20.8125L21 23.9375H27.2812V35H0.9375Z" fill="#141414"/>
<path d="M39.9375 35.4922C37.3125 35.4922 35.25 34.6641 33.75 33.0078C32.25 31.3516 31.5 28.7891 31.5 25.3203V15.2188L28.7812 14.4688V9.64062H39.7266V25.3672C39.7266 26.6172 39.9844 27.5703 40.5 28.2266C41.0312 28.8672 41.8203 29.1875 42.8672 29.1875C43.4766 29.1875 44.0781 29.0781 44.6719 28.8594C45.2812 28.625 45.8203 28.2812 46.2891 27.8281V15.2188L43.5234 14.4688V9.64062H54.5156V29.4453L57.6797 30.1953V35H47.3672L46.8281 32.1172C46.0156 33.2109 45.0234 34.0469 43.8516 34.625C42.6953 35.2031 41.3906 35.4922 39.9375 35.4922Z" fill="#141414"/>
<path d="M68.4375 35.4922C65.9844 35.4922 63.9844 34.7969 62.4375 33.4062C60.8906 32.0156 60.1172 30.1641 60.1172 27.8516C60.1172 26.2734 60.5391 24.875 61.3828 23.6562C62.2422 22.4375 63.5234 21.4844 65.2266 20.7969C66.9453 20.0938 69.0938 19.7422 71.6719 19.7422H74.3203V18.2422C74.3203 17.2266 74.0312 16.3672 73.4531 15.6641C72.875 14.9453 71.9609 14.5859 70.7109 14.5859C70.1797 14.5859 69.6797 14.6562 69.2109 14.7969C68.7578 14.9219 68.3438 15.1094 67.9688 15.3594L67.4062 18.5938H61.6172L61.5 11.5391C62.9375 10.8984 64.4375 10.3438 66 9.875C67.5781 9.40625 69.3359 9.17188 71.2734 9.17188C74.7266 9.17188 77.4688 9.96875 79.5 11.5625C81.5312 13.1406 82.5469 15.3984 82.5469 18.3359V27.6875C82.5469 28.0469 82.5469 28.3984 82.5469 28.7422C82.5625 29.0859 82.6016 29.4141 82.6641 29.7266L85.4062 30.1953V35H75.7969C75.5938 34.7188 75.375 34.3438 75.1406 33.875C74.9062 33.4062 74.7422 32.9375 74.6484 32.4688C73.8828 33.4219 73.0234 34.1641 72.0703 34.6953C71.1172 35.2266 69.9062 35.4922 68.4375 35.4922ZM70.9688 29.6797C71.5625 29.6797 72.1562 29.5625 72.75 29.3281C73.3594 29.0781 73.8828 28.7109 74.3203 28.2266V24.5703H71.7656C70.6562 24.5703 69.7969 24.8125 69.1875 25.2969C68.5938 25.7812 68.2969 26.4219 68.2969 27.2188C68.2969 27.9844 68.5469 28.5859 69.0469 29.0234C69.5469 29.4609 70.1875 29.6797 70.9688 29.6797Z" fill="#141414"/>
<path d="M86.7188 35V30.1953L89.6719 29.4453V15.2188L86.1562 14.4688V9.64062H97.4531L97.7344 13.1797C98.5781 11.9141 99.6094 10.9297 100.828 10.2266C102.062 9.52344 103.461 9.17188 105.023 9.17188C107.398 9.17188 109.273 9.97656 110.648 11.5859C112.023 13.1953 112.711 15.75 112.711 19.25V29.4453L115.664 30.1953V35H102.07V30.1953L104.461 29.4453V19.2266C104.461 17.8672 104.188 16.9062 103.641 16.3438C103.094 15.7656 102.312 15.4766 101.297 15.4766C100.531 15.4766 99.875 15.6172 99.3281 15.8984C98.7812 16.1641 98.3047 16.5703 97.8984 17.1172V29.4453L100.008 30.1953V35H86.7188Z" fill="#141414"/>
<path d="M118.758 35V28.2031H126.938V35H118.758Z" fill="url(#paint0_linear_8_243)"/>
<defs>
<linearGradient id="paint0_linear_8_243" x1="63.9375" y1="0.875" x2="63.9375" y2="34.6268" gradientUnits="userSpaceOnUse">
<stop stop-color="#59FB5F"/>
<stop offset="1" stop-color="#4DC614"/>
</linearGradient>
</defs>
</svg>
